<svg width="240" height="240" viewBox="0 0 240 240" fill="none" xmlns="http://www.w3.org/2000/svg">
<path fill-rule="evenodd" clip-rule="evenodd" d="M114.529 0.240055C107.364 0.778093 101.988 1.63608 95.7552 3.23155C56.7668 13.2161 30.1074 47.3822 30.0055 87.494C29.984 95.7497 29.9625 95.4728 31.2509 103.16C33.4877 116.492 38.0919 128.475 46.2987 142.324C55.52 157.882 59.183 163.676 65.5232 172.741C66.879 174.679 68.8275 177.497 69.8533 179.001C72.6956 183.171 73.6024 184.456 76.0845 187.829C77.3428 189.538 79.7288 192.839 81.386 195.165C87.0002 203.04 87.9156 204.294 93.8957 212.292C99.147 219.315 105.141 227.081 108.888 231.72C118.258 243.317 123.145 242.874 133.428 229.494C135.206 227.18 137.333 224.44 138.157 223.405C139.8 221.339 142.293 218.056 145.364 213.92C146.457 212.445 148.816 209.3 150.603 206.931C156.361 199.3 156.776 198.749 158.488 196.442C159.414 195.192 160.96 193.05 161.921 191.683C162.882 190.315 164.674 187.797 165.905 186.088C167.136 184.378 168.693 182.196 169.366 181.239C170.04 180.282 171.422 178.323 172.439 176.887C180.316 165.762 194.8 142.272 199.499 132.999C203.341 125.418 206.821 115.552 208.531 107.387C208.76 106.292 209.04 104.951 209.155 104.403C211.006 95.5086 210.887 80.864 208.882 70.8335C200.363 28.2266 158.535 -3.06995 114.529 0.240055ZM130.071 36.7463C131.096 36.9586 132.551 37.2585 133.303 37.412C140.075 38.7966 147.335 42.2816 153.707 47.2043C176.326 64.6812 180.886 97.8789 163.819 120.821C148.956 140.799 124.822 148.262 102.345 139.831C97.2057 137.905 96.0938 137.322 96.441 136.741C96.5271 136.598 96.4123 136.631 96.1856 136.814C95.1038 137.691 85.9328 130.982 81.7949 126.286C78.8866 122.986 76.5408 119.733 76.6814 119.195C76.7503 118.93 76.6886 118.742 76.5393 118.772C75.7057 118.94 71.5004 111.201 69.8935 106.541C65.5533 93.9533 65.9321 81.9099 71.0958 68.2897C76.1806 54.8817 90.3203 42.2486 104.583 38.3704C108.568 37.2872 112.331 36.5325 114.902 36.3001C117.602 36.0547 128.247 36.3689 130.071 36.7463ZM133.412 58.3395L132.682 59.1473L133.49 58.417C134.243 57.7355 134.412 57.5303 134.22 57.5303C134.177 57.5303 133.814 57.8948 133.412 58.3395ZM107.43 60.7012L106.572 61.6338L107.505 60.7772C108.018 60.3052 108.437 59.8862 108.437 59.8446C108.437 59.6538 108.226 59.8331 107.43 60.7012ZM122.349 70.647L121.492 71.5796L122.425 70.723C123.293 69.9253 123.471 69.7158 123.281 69.7158C123.24 69.7158 122.821 70.1348 122.349 70.647ZM127.152 113.409C127.531 113.466 128.089 113.465 128.396 113.406C128.702 113.347 128.392 113.3 127.709 113.301C127.025 113.304 126.775 113.351 127.152 113.409ZM78.2094 117.271L77.4791 118.079L78.2869 117.349C79.0401 116.669 79.2094 116.463 79.0172 116.463C78.9741 116.463 78.6111 116.826 78.2094 117.271ZM102.087 130.699L100.853 132.005L102.159 130.771C102.876 130.092 103.464 129.504 103.464 129.465C103.464 129.279 103.233 129.485 102.087 130.699ZM98.8572 133.932L97.1225 135.734L98.926 134.001C100.6 132.389 100.843 132.128 100.661 132.128C100.622 132.128 99.8113 132.94 98.8572 133.932Z" fill="#9333EA"/>
<path d="M102.932 67.2681C107.311 58.6724 115.681 52.8516 126.59 50.8171C132.236 49.7639 136.747 50.3163 137.349 52.1328C137.808 53.5187 137.893 53.3997 130.699 61.41C128.379 63.9954 126.085 66.5493 125.601 67.0888C125.119 67.6268 123.855 69.0114 122.793 70.1678C120.163 73.0287 120.155 73.1019 122.009 77.0504C122.458 78.0073 123.456 80.2456 124.227 82.0233C126.3 86.8097 126.122 86.6891 134.2 88.8513C140.046 90.4166 138.464 91.246 148.332 81.4379C157.328 72.4978 157.66 72.2023 158.7 72.2023C161.211 72.2023 162.105 79.7865 160.509 87.5543C157.354 102.913 144.292 113.125 127.629 113.257C119.1 113.324 119.976 112.786 106.598 126.173L95.682 137.094L93.8283 136.041C91.7694 134.871 87.4594 131.709 85.0892 129.629C82.4793 127.336 76.6082 120.274 76.6082 119.426C76.6082 119.253 81.4506 114.235 87.369 108.275C98.5889 96.9793 99.0093 96.4829 100.091 93.2991C100.74 91.388 100.811 90.0824 100.384 88.0105C99.1427 82.0103 100.325 72.3831 102.932 67.2681Z" fill="#333E43"/>
</svg>
