<svg width="466" height="168" viewBox="0 0 466 168" fill="none" xmlns="http://www.w3.org/2000/svg">
<path d="M392.217 55.6213C388.091 51.1623 390.033 44.4565 395.906 42.8817C402.04 41.2376 407.465 46.9327 405.384 52.8331C403.42 58.3975 396.199 59.927 392.217 55.6213Z" fill="#9333ea"/>
<path d="M336.305 81.9379C336.27 60.0123 336.33 45.3859 336.459 45.3086C336.575 45.2366 346.518 45.1792 358.554 45.1792H380.438V51.765V58.3509L366.192 58.4109C356.142 58.4535 351.856 58.5469 351.637 58.7282C351.311 58.9976 351.151 75.5414 351.467 76.3575C351.593 76.6855 353.003 76.7242 365.023 76.7242C372.402 76.7242 378.489 76.8042 378.55 76.9042C378.64 77.0482 378.793 88.5877 378.718 89.5998C378.703 89.8171 375.623 89.8971 365.262 89.9465C357.874 89.9825 351.773 90.0665 351.706 90.1331C351.639 90.1998 351.564 96.5723 351.542 104.295C351.502 116.998 351.463 118.353 351.121 118.502C350.915 118.593 347.509 118.615 343.554 118.553L336.364 118.437L336.305 81.9379Z" fill="#9333ea"/>
<path d="M390.577 105.149C390.507 91.9039 390.86 65.5674 391.113 65.1607C391.329 64.814 404.282 64.866 404.632 65.2153C404.948 65.53 405.052 118.23 404.736 118.373C404.641 118.415 401.43 118.395 397.603 118.327L390.643 118.206L390.577 105.149Z" fill="#9333ea"/>
<path d="M419.644 75.4521C416.069 70.1144 413.071 65.5647 412.978 65.342C412.822 64.962 413.295 64.938 421.049 64.938H429.287L430.107 66.2661C430.558 66.9968 432.172 69.5997 433.695 72.0505C435.218 74.5013 436.652 76.8402 436.88 77.2509C437.864 79.0057 438.377 79.7284 438.639 79.7284C438.906 79.7284 440.008 78.0123 445.512 69.0383L447.956 65.0527L456.241 64.9927C460.797 64.9593 464.526 65.002 464.526 65.0873C464.526 65.1727 463.986 66.0327 463.327 66.9968C460.313 71.4038 448.557 88.8864 447.889 89.9558C447.16 91.1225 447.152 91.1639 447.541 91.7693C448.323 92.984 460.809 111.565 463.118 114.951C464.411 116.847 465.388 118.458 465.288 118.533C465.188 118.607 461.452 118.615 456.987 118.553L448.868 118.437L448.022 117.166C447.556 116.467 446.188 114.335 444.981 112.428C443.773 110.521 441.936 107.628 440.897 105.997C439.859 104.366 439.01 102.929 439.01 102.802C439.01 101.858 437.854 103.338 435.372 107.46C433.803 110.065 431.814 113.332 430.951 114.719C430.089 116.106 429.344 117.354 429.294 117.491C428.919 118.561 428.994 118.553 420.3 118.553C415.79 118.553 412.102 118.499 412.102 118.435C412.102 118.37 415.303 113.508 419.217 107.63C429.069 92.8373 429.963 91.4719 429.963 91.2212C429.963 90.9412 427.788 87.6196 419.644 75.4521Z" fill="#9333ea"/>
<path d="M216.858 54.4617C214.038 50.0465 216.334 44.2431 221.447 42.8655C226.351 41.5429 231.348 45.2351 231.348 50.1817C231.348 58.004 221.063 61.0416 216.858 54.4617Z" fill="#333E43"/>
<path d="M142.505 95.3293C134.393 70.6604 149.431 46.6046 174.228 44.5831C189.746 43.3167 202.434 50.9555 207.589 64.6655C208.431 66.9066 208.411 66.9789 206.844 67.3055C203.581 67.9883 201.107 68.5452 197.509 69.41C194.653 70.0968 194.735 70.1236 193.862 68.2627C186.442 52.4455 163.047 55.2315 157.584 72.5828C152.898 87.4669 160.098 103.256 172.813 105.976C182.052 107.952 189.627 104.41 194.621 95.7751C194.826 95.4177 195.018 95.4003 196.357 95.6185C201.014 96.3749 206.927 97.2424 207.943 97.3187C209.149 97.4097 209.087 97.8555 207.388 101.303C193.805 128.863 152.273 125.041 142.505 95.3293Z" fill="#333E43"/>
<path d="M246.342 58.2262C246.295 54.3666 246.303 51.0238 246.36 50.7989C246.459 50.4174 246.947 50.3933 253.564 50.4508L260.661 50.5124L260.723 57.8741L260.784 65.2372L266.169 65.2988L271.553 65.3617L271.57 70.8639C271.581 73.8908 271.528 76.4665 271.454 76.587C271.378 76.7102 269.035 76.84 266.106 76.8842L260.893 76.9618L260.829 89.0266C260.758 102.407 260.831 103.268 262.208 105.172C263.691 107.223 267.654 107.905 270.545 106.61C272.144 105.893 272.132 105.852 272.128 112.218C272.124 119.033 272.481 118.354 268.374 119.341C260.282 121.283 252.406 118.941 249.219 113.642C246.921 109.82 246.808 108.848 246.656 91.5795L246.526 76.9618L243.514 76.9471C241.857 76.9391 240.004 76.9123 239.397 76.8896L238.293 76.8467L238.354 71.1424L238.416 65.4393L242.234 65.3429C244.335 65.2894 246.137 65.2452 246.24 65.2452C246.343 65.2452 246.388 62.0871 246.342 58.2262Z" fill="#333E43"/>
<path d="M216.75 92.198C216.75 77.5442 216.793 65.5116 216.846 65.4581C217.041 65.2626 230.272 65.4661 230.472 65.6683C230.592 65.7887 230.741 77.1493 230.82 92.3587L230.959 118.842H223.855H216.75V92.198Z" fill="#333E43"/>
<path d="M279.863 76.5107C277.523 70.6484 275.608 65.7151 275.608 65.5478C275.608 65.3055 277.071 65.2452 282.994 65.2452H290.379L291.121 67.1596C292.236 70.0325 292.594 71.0058 294.271 75.686C295.116 78.0462 296.109 80.7612 296.478 81.7184C296.847 82.6756 298.496 87.1095 300.14 91.5702C301.785 96.0322 303.221 99.711 303.331 99.7458C303.44 99.7793 303.875 98.8435 304.296 97.6654C305.65 93.8781 306.899 90.4416 307.224 89.6076C307.942 87.7668 308.723 85.6409 314.658 69.3926C315.2 67.9093 315.787 66.3965 315.962 66.0284L316.283 65.3617L323.289 65.3322C327.142 65.3162 330.295 65.3911 330.295 65.4982C330.295 65.6053 329.784 66.9762 329.16 68.5439C328.535 70.1115 327.763 72.0728 327.442 72.9015C327.119 73.7315 325.534 77.7504 323.916 81.8349C321.072 89.0172 319.576 92.8205 317.391 98.4232C314.258 106.461 312.864 110.043 310.215 116.87C306.017 127.689 304.181 131.246 301.167 134.406C296.787 138.996 290.708 141.211 284.588 140.446C283.288 140.283 282.144 140.101 282.045 140.039C281.831 139.907 281.798 128.033 282.01 127.82C282.092 127.74 282.378 127.795 282.648 127.944C283.727 128.534 287.412 128.304 288.896 127.551C290.912 126.529 293.142 124.027 294.489 121.274C296.062 118.057 296.068 117.742 294.604 114.548C294.311 113.91 292.621 109.509 290.907 104.92C288.213 97.7043 284.115 87.1644 279.863 76.5107Z" fill="#333E43"/>
<path fill-rule="evenodd" clip-rule="evenodd" d="M58.9148 0.167313C53.9208 0.542313 50.1738 1.14031 45.8298 2.25231C18.6558 9.21131 0.0748453 33.0243 0.00384531 60.9813C-0.0111547 66.7353 -0.0261546 66.5423 0.871845 71.9003C2.43085 81.1923 5.63985 89.5443 11.3598 99.1963C17.7868 110.04 20.3398 114.078 24.7588 120.396C25.7038 121.747 27.0618 123.711 27.7768 124.759C29.7578 127.666 30.3898 128.561 32.1198 130.912C32.9968 132.103 34.6598 134.404 35.8148 136.025C39.7278 141.514 40.3658 142.388 44.5338 147.962C48.1938 152.857 52.3718 158.27 54.9828 161.503C61.5138 169.586 64.9198 169.277 72.0868 159.952C73.3258 158.339 74.8088 156.429 75.3828 155.708C76.5278 154.268 78.2658 151.98 80.4058 149.097C81.1678 148.069 82.8118 145.877 84.0578 144.226C88.0708 138.907 88.3598 138.523 89.5528 136.915C90.1988 136.044 91.2758 134.551 91.9458 133.598C92.6158 132.645 93.8648 130.89 94.7228 129.699C95.5808 128.507 96.6658 126.986 97.1348 126.319C97.6048 125.652 98.5678 124.287 99.2768 123.286C104.767 115.532 114.862 99.1603 118.137 92.6973C120.815 87.4133 123.24 80.5373 124.432 74.8463C124.592 74.0833 124.787 73.1483 124.867 72.7663C126.157 66.5673 126.074 56.3603 124.677 49.3693C118.739 19.6733 89.5858 -2.13969 58.9148 0.167313ZM69.7468 25.6113C70.4618 25.7593 71.4758 25.9683 71.9998 26.0753C76.7198 27.0403 81.7798 29.4693 86.2208 32.9003C101.986 45.0813 105.164 68.2193 93.2688 84.2093C82.9098 98.1333 66.0888 103.335 50.4228 97.4593C46.8408 96.1163 46.0658 95.7103 46.3078 95.3053C46.3678 95.2053 46.2878 95.2283 46.1298 95.3563C45.3758 95.9673 38.9838 91.2913 36.0998 88.0183C34.0728 85.7183 32.4378 83.4513 32.5358 83.0763C32.5838 82.8913 32.5408 82.7603 32.4368 82.7813C31.8558 82.8983 28.9248 77.5043 27.8048 74.2563C24.7798 65.4833 25.0438 57.0893 28.6428 47.5963C32.1868 38.2513 42.0418 29.4463 51.9828 26.7433C54.7598 25.9883 57.3828 25.4623 59.1748 25.3003C61.0568 25.1293 68.4758 25.3483 69.7468 25.6113ZM72.0758 40.6613L71.5668 41.2243L72.1298 40.7153C72.6548 40.2403 72.7728 40.0973 72.6388 40.0973C72.6088 40.0973 72.3558 40.3513 72.0758 40.6613ZM53.9668 42.3073L53.3688 42.9573L54.0188 42.3603C54.3768 42.0313 54.6688 41.7393 54.6688 41.7103C54.6688 41.5773 54.5218 41.7023 53.9668 42.3073ZM64.3648 49.2393L63.7678 49.8893L64.4178 49.2923C65.0228 48.7363 65.1468 48.5903 65.0148 48.5903C64.9858 48.5903 64.6938 48.8823 64.3648 49.2393ZM67.7128 79.0433C67.9768 79.0833 68.3658 79.0823 68.5798 79.0413C68.7928 79.0003 68.5768 78.9673 68.1008 78.9683C67.6238 78.9703 67.4498 79.0033 67.7128 79.0433ZM33.6008 81.7353L33.0918 82.2983L33.6548 81.7893C34.1798 81.3153 34.2978 81.1723 34.1638 81.1723C34.1338 81.1723 33.8808 81.4253 33.6008 81.7353ZM50.2428 91.0943L49.3828 92.0043L50.2928 91.1443C50.7928 90.6713 51.2028 90.2613 51.2028 90.2343C51.2028 90.1043 51.0418 90.2483 50.2428 91.0943ZM47.9918 93.3473L46.7828 94.6033L48.0398 93.3953C49.2068 92.2723 49.3758 92.0903 49.2488 92.0903C49.2218 92.0903 48.6568 92.6563 47.9918 93.3473Z" fill="#9333ea"/>
<path d="M50.8319 46.8843C53.8839 40.8933 59.7179 36.8363 67.3209 35.4183C71.2559 34.6843 74.3999 35.0693 74.8199 36.3353C75.1399 37.3013 75.1989 37.2183 70.1849 42.8013C68.5679 44.6033 66.9689 46.3833 66.6319 46.7593C66.2959 47.1343 65.4149 48.0993 64.6749 48.9053C62.8419 50.8993 62.8359 50.9503 64.1279 53.7023C64.4409 54.3693 65.1369 55.9293 65.6739 57.1683C67.1189 60.5043 66.9949 60.4203 72.6249 61.9273C76.6999 63.0183 75.5969 63.5963 82.4749 56.7603C88.7449 50.5293 88.9759 50.3233 89.7009 50.3233C91.4509 50.3233 92.0739 55.6093 90.9619 61.0233C88.7629 71.7283 79.6589 78.8453 68.0449 78.9373C62.1009 78.9843 62.7109 78.6093 53.3869 87.9393L45.7789 95.5513L44.4869 94.8173C43.0519 94.0023 40.0479 91.7983 38.3959 90.3483C36.5769 88.7503 32.4849 83.8283 32.4849 83.2373C32.4849 83.1163 35.8599 79.6193 39.9849 75.4653C47.8049 67.5923 48.0979 67.2463 48.8519 65.0273C49.3039 63.6953 49.3539 62.7853 49.0559 61.3413C48.1909 57.1593 49.0149 50.4493 50.8319 46.8843Z" fill="#333E43"/>
</svg>
